<svg xmlns="http://www.w3.org/2000/svg" viewBox="0 0 512 512" width="512" height="512">
  <defs>
    <linearGradient id="bgGrad" x1="0%" y1="0%" x2="100%" y2="100%">
      <stop offset="0%" stop-color="#7C3AED"/>
      <stop offset="50%" stop-color="#A855F7"/>
      <stop offset="100%" stop-color="#F59E0B"/>
    </linearGradient>
    <radialGradient id="innerGlow" cx="35%" cy="30%" r="65%">
      <stop offset="0%" stop-color="rgba(255,255,255,0.18)"/>
      <stop offset="100%" stop-color="rgba(0,0,0,0)"/>
    </radialGradient>
  </defs>
  <circle cx="256" cy="256" r="248" fill="url(#bgGrad)"/>
  <circle cx="256" cy="256" r="248" fill="url(#innerGlow)"/>
  <g transform="translate(256, 256)">
    <path d="M 60,-120 C 20,-120 -80,-120 -80,-60 C -80,0 0,10 40,20 C 80,30 80,60 80,60 C 80,120 -20,120 -60,120"
      fill="none" stroke="white" stroke-width="40" stroke-linecap="round"/>
    <g transform="translate(78, -98)" fill="white" opacity="0.95">
      <path d="M 0,-16 L 3.5,-3.5 L 16,0 L 3.5,3.5 L 0,16 L -3.5,3.5 L -16,0 L -3.5,-3.5 Z"/>
    </g>
    <g transform="translate(-76, 96)" fill="white" opacity="0.7">
      <path d="M 0,-10 L 2.2,-2.2 L 10,0 L 2.2,2.2 L 0,10 L -2.2,2.2 L -10,0 L -2.2,-2.2 Z"/>
    </g>
  </g>
</svg>